<svg xmlns="http://www.w3.org/2000/svg" width="31.725" height="31.218" viewBox="0 0 31.725 31.218"><defs><style>.a{fill:#17344f;}</style></defs><path class="a" d="M32.144,232.159a3.8,3.8,0,0,1-1.857,2.3,13.678,13.678,0,0,1-3.432,1.567,28.852,28.852,0,0,1-5.205,1.124,41.722,41.722,0,0,1-6.405.313A37.487,37.487,0,0,1,6.8,236.34a16.518,16.518,0,0,1-4.028-1.552,5.8,5.8,0,0,1-1.8-1.475A2.161,2.161,0,0,1,.5,231.348c.076-.3.138-.6.222-.894.168-.566.352-1.124.52-1.682a3.342,3.342,0,0,1,1.276-1.735,20.521,20.521,0,0,1,3.363-1.957c1.383-.673,2.828-1.215,4.265-1.766a.2.2,0,0,1,.229.061c.413.359.818.741,1.253,1.07a7.318,7.318,0,0,0,2.69,1.376,7.6,7.6,0,0,0,7.047-1.689c.29-.245.558-.52.848-.78a.215.215,0,0,1,.176-.046,38.314,38.314,0,0,1,6.871,3.164c.237.138.459.3.688.459a3.6,3.6,0,0,1,1.429,1.941c.252.841.482,1.689.718,2.53.023.084.038.168.054.252C32.144,231.815,32.144,231.983,32.144,232.159Z" transform="translate(-0.426 -206.26)"/><path class="a" d="M122.514,8.406a11.452,11.452,0,0,1-3.745,8.354A7.458,7.458,0,0,1,117,17.937a5.527,5.527,0,0,1-2.652.413,5.263,5.263,0,0,1-3.1-1.261,10.7,10.7,0,0,1-3.432-4.823,11.037,11.037,0,0,1-.726-4.127A8.01,8.01,0,0,1,113.441.5a7.014,7.014,0,0,1,4.716.718,7.77,7.77,0,0,1,4.2,5.626A14.2,14.2,0,0,1,122.514,8.406Z" transform="translate(-98.929 -0.362)"/></svg>